<svg width="484" height="114" viewBox="0 0 484 114" fill="none" xmlns="http://www.w3.org/2000/svg">
<rect width="450" height="114" rx="9" fill="#FFD600"/>
<mask id="path-2-outside-1_10306_16" maskUnits="userSpaceOnUse" x="51" y="35" width="363" height="45" fill="black">
<rect fill="white" x="51" y="35" width="363" height="45"/>
<path d="M67.43 76.371C64.8507 76.371 62.5187 75.9293 60.434 75.046C58.3847 74.1627 56.7593 72.8907 55.558 71.23C54.3567 69.5693 53.7383 67.6083 53.703 65.347H61.653C61.759 66.8663 62.289 68.0677 63.243 68.951C64.2323 69.8343 65.575 70.276 67.271 70.276C69.0023 70.276 70.3627 69.8697 71.352 69.057C72.3413 68.209 72.836 67.1137 72.836 65.771C72.836 64.6757 72.5003 63.7747 71.829 63.068C71.1577 62.3613 70.3097 61.8137 69.285 61.425C68.2957 61.001 66.9177 60.5417 65.151 60.047C62.7483 59.3403 60.7873 58.6513 59.268 57.98C57.784 57.2733 56.4943 56.231 55.399 54.853C54.339 53.4397 53.809 51.567 53.809 49.235C53.809 47.0443 54.3567 45.1363 55.452 43.511C56.5473 41.8857 58.0843 40.649 60.063 39.801C62.0417 38.9177 64.303 38.476 66.847 38.476C70.663 38.476 73.7547 39.4123 76.122 41.285C78.5247 43.1223 79.8497 45.7017 80.097 49.023H71.935C71.8643 47.751 71.3167 46.7087 70.292 45.896C69.3027 45.048 67.9777 44.624 66.317 44.624C64.8683 44.624 63.7023 44.995 62.819 45.737C61.971 46.479 61.547 47.5567 61.547 48.97C61.547 49.9593 61.865 50.7897 62.501 51.461C63.1723 52.097 63.985 52.627 64.939 53.051C65.9283 53.4397 67.3063 53.899 69.073 54.429C71.4757 55.1357 73.4367 55.8423 74.956 56.549C76.4753 57.2557 77.7827 58.3157 78.878 59.729C79.9733 61.1423 80.521 62.9973 80.521 65.294C80.521 67.2727 80.0087 69.11 78.984 70.806C77.9593 72.502 76.4577 73.8623 74.479 74.887C72.5003 75.8763 70.1507 76.371 67.43 76.371ZM95.5929 52.733V66.937C95.5929 67.9263 95.8225 68.6507 96.2819 69.11C96.7765 69.534 97.5892 69.746 98.7199 69.746H102.165V76H97.5009C91.2469 76 88.1199 72.9613 88.1199 66.884V52.733H84.6219V46.638H88.1199V39.377H95.5929V46.638H102.165V52.733H95.5929ZM105.594 61.213C105.594 58.245 106.177 55.6127 107.343 53.316C108.544 51.0193 110.152 49.2527 112.166 48.016C114.215 46.7793 116.494 46.161 119.003 46.161C121.193 46.161 123.101 46.6027 124.727 47.486C126.387 48.3693 127.712 49.4823 128.702 50.825V46.638H136.175V76H128.702V71.707C127.748 73.085 126.423 74.2333 124.727 75.152C123.066 76.0353 121.14 76.477 118.95 76.477C116.476 76.477 114.215 75.841 112.166 74.569C110.152 73.297 108.544 71.5127 107.343 69.216C106.177 66.884 105.594 64.2163 105.594 61.213ZM128.702 61.319C128.702 59.517 128.348 57.98 127.642 56.708C126.935 55.4007 125.981 54.4113 124.78 53.74C123.578 53.0333 122.289 52.68 120.911 52.68C119.533 52.68 118.261 53.0157 117.095 53.687C115.929 54.3583 114.975 55.3477 114.233 56.655C113.526 57.927 113.173 59.4463 113.173 61.213C113.173 62.9797 113.526 64.5343 114.233 65.877C114.975 67.1843 115.929 68.1913 117.095 68.898C118.296 69.6047 119.568 69.958 120.911 69.958C122.289 69.958 123.578 69.6223 124.78 68.951C125.981 68.2443 126.935 67.255 127.642 65.983C128.348 64.6757 128.702 63.121 128.702 61.319ZM150.842 51.196C151.796 49.6413 153.032 48.4223 154.552 47.539C156.106 46.6557 157.873 46.214 159.852 46.214V54.005H157.891C155.559 54.005 153.792 54.5527 152.591 55.648C151.425 56.7433 150.842 58.6513 150.842 61.372V76H143.422V46.638H150.842V51.196ZM173.488 52.733V66.937C173.488 67.9263 173.718 68.6507 174.177 69.11C174.672 69.534 175.485 69.746 176.615 69.746H180.06V76H175.396C169.142 76 166.015 72.9613 166.015 66.884V52.733H162.517V46.638H166.015V39.377H173.488V46.638H180.06V52.733H173.488ZM229.667 76H222.247L205.446 50.613V76H198.026V38.953H205.446L222.247 64.393V38.953H229.667V76ZM250.038 76.477C247.211 76.477 244.667 75.8587 242.406 74.622C240.144 73.35 238.36 71.5657 237.053 69.269C235.781 66.9723 235.145 64.3223 235.145 61.319C235.145 58.3157 235.798 55.6657 237.106 53.369C238.448 51.0723 240.268 49.3057 242.565 48.069C244.861 46.797 247.423 46.161 250.25 46.161C253.076 46.161 255.638 46.797 257.935 48.069C260.231 49.3057 262.033 51.0723 263.341 53.369C264.683 55.6657 265.355 58.3157 265.355 61.319C265.355 64.3223 264.666 66.9723 263.288 69.269C261.945 71.5657 260.108 73.35 257.776 74.622C255.479 75.8587 252.9 76.477 250.038 76.477ZM250.038 70.011C251.38 70.011 252.635 69.693 253.801 69.057C255.002 68.3857 255.956 67.3963 256.663 66.089C257.369 64.7817 257.723 63.1917 257.723 61.319C257.723 58.5277 256.981 56.39 255.497 54.906C254.048 53.3867 252.264 52.627 250.144 52.627C248.024 52.627 246.239 53.3867 244.791 54.906C243.377 56.39 242.671 58.5277 242.671 61.319C242.671 64.1103 243.36 66.2657 244.738 67.785C246.151 69.269 247.918 70.011 250.038 70.011ZM311.502 46.638L302.916 76H294.913L289.56 55.489L284.207 76H276.151L267.512 46.638H275.038L280.232 69.004L285.85 46.638H293.694L299.206 68.951L304.4 46.638H311.502ZM329.205 45.26H338.586L350.14 57.132L338.586 69.004H329.205L340.812 57.132L329.205 45.26ZM359.277 45.26H368.658L380.212 57.132L368.658 69.004H359.277L370.884 57.132L359.277 45.26ZM389.348 45.26H398.729L410.283 57.132L398.729 69.004H389.348L400.955 57.132L389.348 45.26Z"/>
</mask>
<path d="M67.43 76.371C64.8507 76.371 62.5187 75.9293 60.434 75.046C58.3847 74.1627 56.7593 72.8907 55.558 71.23C54.3567 69.5693 53.7383 67.6083 53.703 65.347H61.653C61.759 66.8663 62.289 68.0677 63.243 68.951C64.2323 69.8343 65.575 70.276 67.271 70.276C69.0023 70.276 70.3627 69.8697 71.352 69.057C72.3413 68.209 72.836 67.1137 72.836 65.771C72.836 64.6757 72.5003 63.7747 71.829 63.068C71.1577 62.3613 70.3097 61.8137 69.285 61.425C68.2957 61.001 66.9177 60.5417 65.151 60.047C62.7483 59.3403 60.7873 58.6513 59.268 57.98C57.784 57.2733 56.4943 56.231 55.399 54.853C54.339 53.4397 53.809 51.567 53.809 49.235C53.809 47.0443 54.3567 45.1363 55.452 43.511C56.5473 41.8857 58.0843 40.649 60.063 39.801C62.0417 38.9177 64.303 38.476 66.847 38.476C70.663 38.476 73.7547 39.4123 76.122 41.285C78.5247 43.1223 79.8497 45.7017 80.097 49.023H71.935C71.8643 47.751 71.3167 46.7087 70.292 45.896C69.3027 45.048 67.9777 44.624 66.317 44.624C64.8683 44.624 63.7023 44.995 62.819 45.737C61.971 46.479 61.547 47.5567 61.547 48.97C61.547 49.9593 61.865 50.7897 62.501 51.461C63.1723 52.097 63.985 52.627 64.939 53.051C65.9283 53.4397 67.3063 53.899 69.073 54.429C71.4757 55.1357 73.4367 55.8423 74.956 56.549C76.4753 57.2557 77.7827 58.3157 78.878 59.729C79.9733 61.1423 80.521 62.9973 80.521 65.294C80.521 67.2727 80.0087 69.11 78.984 70.806C77.9593 72.502 76.4577 73.8623 74.479 74.887C72.5003 75.8763 70.1507 76.371 67.43 76.371ZM95.5929 52.733V66.937C95.5929 67.9263 95.8225 68.6507 96.2819 69.11C96.7765 69.534 97.5892 69.746 98.7199 69.746H102.165V76H97.5009C91.2469 76 88.1199 72.9613 88.1199 66.884V52.733H84.6219V46.638H88.1199V39.377H95.5929V46.638H102.165V52.733H95.5929ZM105.594 61.213C105.594 58.245 106.177 55.6127 107.343 53.316C108.544 51.0193 110.152 49.2527 112.166 48.016C114.215 46.7793 116.494 46.161 119.003 46.161C121.193 46.161 123.101 46.6027 124.727 47.486C126.387 48.3693 127.712 49.4823 128.702 50.825V46.638H136.175V76H128.702V71.707C127.748 73.085 126.423 74.2333 124.727 75.152C123.066 76.0353 121.14 76.477 118.95 76.477C116.476 76.477 114.215 75.841 112.166 74.569C110.152 73.297 108.544 71.5127 107.343 69.216C106.177 66.884 105.594 64.2163 105.594 61.213ZM128.702 61.319C128.702 59.517 128.348 57.98 127.642 56.708C126.935 55.4007 125.981 54.4113 124.78 53.74C123.578 53.0333 122.289 52.68 120.911 52.68C119.533 52.68 118.261 53.0157 117.095 53.687C115.929 54.3583 114.975 55.3477 114.233 56.655C113.526 57.927 113.173 59.4463 113.173 61.213C113.173 62.9797 113.526 64.5343 114.233 65.877C114.975 67.1843 115.929 68.1913 117.095 68.898C118.296 69.6047 119.568 69.958 120.911 69.958C122.289 69.958 123.578 69.6223 124.78 68.951C125.981 68.2443 126.935 67.255 127.642 65.983C128.348 64.6757 128.702 63.121 128.702 61.319ZM150.842 51.196C151.796 49.6413 153.032 48.4223 154.552 47.539C156.106 46.6557 157.873 46.214 159.852 46.214V54.005H157.891C155.559 54.005 153.792 54.5527 152.591 55.648C151.425 56.7433 150.842 58.6513 150.842 61.372V76H143.422V46.638H150.842V51.196ZM173.488 52.733V66.937C173.488 67.9263 173.718 68.6507 174.177 69.11C174.672 69.534 175.485 69.746 176.615 69.746H180.06V76H175.396C169.142 76 166.015 72.9613 166.015 66.884V52.733H162.517V46.638H166.015V39.377H173.488V46.638H180.06V52.733H173.488ZM229.667 76H222.247L205.446 50.613V76H198.026V38.953H205.446L222.247 64.393V38.953H229.667V76ZM250.038 76.477C247.211 76.477 244.667 75.8587 242.406 74.622C240.144 73.35 238.36 71.5657 237.053 69.269C235.781 66.9723 235.145 64.3223 235.145 61.319C235.145 58.3157 235.798 55.6657 237.106 53.369C238.448 51.0723 240.268 49.3057 242.565 48.069C244.861 46.797 247.423 46.161 250.25 46.161C253.076 46.161 255.638 46.797 257.935 48.069C260.231 49.3057 262.033 51.0723 263.341 53.369C264.683 55.6657 265.355 58.3157 265.355 61.319C265.355 64.3223 264.666 66.9723 263.288 69.269C261.945 71.5657 260.108 73.35 257.776 74.622C255.479 75.8587 252.9 76.477 250.038 76.477ZM250.038 70.011C251.38 70.011 252.635 69.693 253.801 69.057C255.002 68.3857 255.956 67.3963 256.663 66.089C257.369 64.7817 257.723 63.1917 257.723 61.319C257.723 58.5277 256.981 56.39 255.497 54.906C254.048 53.3867 252.264 52.627 250.144 52.627C248.024 52.627 246.239 53.3867 244.791 54.906C243.377 56.39 242.671 58.5277 242.671 61.319C242.671 64.1103 243.36 66.2657 244.738 67.785C246.151 69.269 247.918 70.011 250.038 70.011ZM311.502 46.638L302.916 76H294.913L289.56 55.489L284.207 76H276.151L267.512 46.638H275.038L280.232 69.004L285.85 46.638H293.694L299.206 68.951L304.4 46.638H311.502ZM329.205 45.26H338.586L350.14 57.132L338.586 69.004H329.205L340.812 57.132L329.205 45.26ZM359.277 45.26H368.658L380.212 57.132L368.658 69.004H359.277L370.884 57.132L359.277 45.26ZM389.348 45.26H398.729L410.283 57.132L398.729 69.004H389.348L400.955 57.132L389.348 45.26Z" fill="black"/>
<path d="M67.43 76.371C64.8507 76.371 62.5187 75.9293 60.434 75.046C58.3847 74.1627 56.7593 72.8907 55.558 71.23C54.3567 69.5693 53.7383 67.6083 53.703 65.347H61.653C61.759 66.8663 62.289 68.0677 63.243 68.951C64.2323 69.8343 65.575 70.276 67.271 70.276C69.0023 70.276 70.3627 69.8697 71.352 69.057C72.3413 68.209 72.836 67.1137 72.836 65.771C72.836 64.6757 72.5003 63.7747 71.829 63.068C71.1577 62.3613 70.3097 61.8137 69.285 61.425C68.2957 61.001 66.9177 60.5417 65.151 60.047C62.7483 59.3403 60.7873 58.6513 59.268 57.98C57.784 57.2733 56.4943 56.231 55.399 54.853C54.339 53.4397 53.809 51.567 53.809 49.235C53.809 47.0443 54.3567 45.1363 55.452 43.511C56.5473 41.8857 58.0843 40.649 60.063 39.801C62.0417 38.9177 64.303 38.476 66.847 38.476C70.663 38.476 73.7547 39.4123 76.122 41.285C78.5247 43.1223 79.8497 45.7017 80.097 49.023H71.935C71.8643 47.751 71.3167 46.7087 70.292 45.896C69.3027 45.048 67.9777 44.624 66.317 44.624C64.8683 44.624 63.7023 44.995 62.819 45.737C61.971 46.479 61.547 47.5567 61.547 48.97C61.547 49.9593 61.865 50.7897 62.501 51.461C63.1723 52.097 63.985 52.627 64.939 53.051C65.9283 53.4397 67.3063 53.899 69.073 54.429C71.4757 55.1357 73.4367 55.8423 74.956 56.549C76.4753 57.2557 77.7827 58.3157 78.878 59.729C79.9733 61.1423 80.521 62.9973 80.521 65.294C80.521 67.2727 80.0087 69.11 78.984 70.806C77.9593 72.502 76.4577 73.8623 74.479 74.887C72.5003 75.8763 70.1507 76.371 67.43 76.371ZM95.5929 52.733V66.937C95.5929 67.9263 95.8225 68.6507 96.2819 69.11C96.7765 69.534 97.5892 69.746 98.7199 69.746H102.165V76H97.5009C91.2469 76 88.1199 72.9613 88.1199 66.884V52.733H84.6219V46.638H88.1199V39.377H95.5929V46.638H102.165V52.733H95.5929ZM105.594 61.213C105.594 58.245 106.177 55.6127 107.343 53.316C108.544 51.0193 110.152 49.2527 112.166 48.016C114.215 46.7793 116.494 46.161 119.003 46.161C121.193 46.161 123.101 46.6027 124.727 47.486C126.387 48.3693 127.712 49.4823 128.702 50.825V46.638H136.175V76H128.702V71.707C127.748 73.085 126.423 74.2333 124.727 75.152C123.066 76.0353 121.14 76.477 118.95 76.477C116.476 76.477 114.215 75.841 112.166 74.569C110.152 73.297 108.544 71.5127 107.343 69.216C106.177 66.884 105.594 64.2163 105.594 61.213ZM128.702 61.319C128.702 59.517 128.348 57.98 127.642 56.708C126.935 55.4007 125.981 54.4113 124.78 53.74C123.578 53.0333 122.289 52.68 120.911 52.68C119.533 52.68 118.261 53.0157 117.095 53.687C115.929 54.3583 114.975 55.3477 114.233 56.655C113.526 57.927 113.173 59.4463 113.173 61.213C113.173 62.9797 113.526 64.5343 114.233 65.877C114.975 67.1843 115.929 68.1913 117.095 68.898C118.296 69.6047 119.568 69.958 120.911 69.958C122.289 69.958 123.578 69.6223 124.78 68.951C125.981 68.2443 126.935 67.255 127.642 65.983C128.348 64.6757 128.702 63.121 128.702 61.319ZM150.842 51.196C151.796 49.6413 153.032 48.4223 154.552 47.539C156.106 46.6557 157.873 46.214 159.852 46.214V54.005H157.891C155.559 54.005 153.792 54.5527 152.591 55.648C151.425 56.7433 150.842 58.6513 150.842 61.372V76H143.422V46.638H150.842V51.196ZM173.488 52.733V66.937C173.488 67.9263 173.718 68.6507 174.177 69.11C174.672 69.534 175.485 69.746 176.615 69.746H180.06V76H175.396C169.142 76 166.015 72.9613 166.015 66.884V52.733H162.517V46.638H166.015V39.377H173.488V46.638H180.06V52.733H173.488ZM229.667 76H222.247L205.446 50.613V76H198.026V38.953H205.446L222.247 64.393V38.953H229.667V76ZM250.038 76.477C247.211 76.477 244.667 75.8587 242.406 74.622C240.144 73.35 238.36 71.5657 237.053 69.269C235.781 66.9723 235.145 64.3223 235.145 61.319C235.145 58.3157 235.798 55.6657 237.106 53.369C238.448 51.0723 240.268 49.3057 242.565 48.069C244.861 46.797 247.423 46.161 250.25 46.161C253.076 46.161 255.638 46.797 257.935 48.069C260.231 49.3057 262.033 51.0723 263.341 53.369C264.683 55.6657 265.355 58.3157 265.355 61.319C265.355 64.3223 264.666 66.9723 263.288 69.269C261.945 71.5657 260.108 73.35 257.776 74.622C255.479 75.8587 252.9 76.477 250.038 76.477ZM250.038 70.011C251.38 70.011 252.635 69.693 253.801 69.057C255.002 68.3857 255.956 67.3963 256.663 66.089C257.369 64.7817 257.723 63.1917 257.723 61.319C257.723 58.5277 256.981 56.39 255.497 54.906C254.048 53.3867 252.264 52.627 250.144 52.627C248.024 52.627 246.239 53.3867 244.791 54.906C243.377 56.39 242.671 58.5277 242.671 61.319C242.671 64.1103 243.36 66.2657 244.738 67.785C246.151 69.269 247.918 70.011 250.038 70.011ZM311.502 46.638L302.916 76H294.913L289.56 55.489L284.207 76H276.151L267.512 46.638H275.038L280.232 69.004L285.85 46.638H293.694L299.206 68.951L304.4 46.638H311.502ZM329.205 45.26H338.586L350.14 57.132L338.586 69.004H329.205L340.812 57.132L329.205 45.26ZM359.277 45.26H368.658L380.212 57.132L368.658 69.004H359.277L370.884 57.132L359.277 45.26ZM389.348 45.26H398.729L410.283 57.132L398.729 69.004H389.348L400.955 57.132L389.348 45.26Z" fill="#0038FE" fill-opacity="0.22"/>
<path d="M60.434 75.046L59.4003 77.4442L59.4077 77.4474L59.4151 77.4505L60.434 75.046ZM55.558 71.23L53.4421 72.7606L55.558 71.23ZM53.703 65.347V62.7355H51.0504L51.0918 65.3878L53.703 65.347ZM61.653 65.347L64.2581 65.1652L64.0886 62.7355H61.653V65.347ZM63.243 68.951L61.4687 70.8672L61.4861 70.8833L61.5037 70.899L63.243 68.951ZM71.352 69.057L73.0096 71.075L73.0308 71.0576L73.0515 71.0398L71.352 69.057ZM71.829 63.068L69.9357 64.8667L71.829 63.068ZM69.285 61.425L68.2563 63.8253L68.3071 63.8471L68.3588 63.8667L69.285 61.425ZM65.151 60.047L64.4141 62.5524L64.4305 62.5572L64.4469 62.5618L65.151 60.047ZM59.268 57.98L58.1452 60.3378L58.1787 60.3537L58.2125 60.3687L59.268 57.98ZM55.399 54.853L53.3098 56.4199L53.3318 56.4492L53.3547 56.478L55.399 54.853ZM55.452 43.511L57.6176 44.9704L55.452 43.511ZM60.063 39.801L61.0917 42.2013L61.1097 42.1936L61.1276 42.1856L60.063 39.801ZM76.122 41.285L74.5018 43.3331L74.5186 43.3464L74.5357 43.3594L76.122 41.285ZM80.097 49.023V51.6345H82.9102L82.7013 48.8291L80.097 49.023ZM71.935 49.023L69.3275 49.1679L69.4646 51.6345H71.935V49.023ZM70.292 45.896L68.5925 47.8788L68.6303 47.9112L68.6692 47.9421L70.292 45.896ZM62.819 45.737L61.1393 43.7374L61.1192 43.7543L61.0993 43.7717L62.819 45.737ZM62.501 51.461L60.6052 53.257L60.6537 53.3083L60.705 53.3568L62.501 51.461ZM64.939 53.051L63.8784 55.4374L63.9308 55.4607L63.9841 55.4816L64.939 53.051ZM69.073 54.429L68.3226 56.9304L68.3361 56.9344L69.073 54.429ZM78.878 59.729L76.8138 61.3287V61.3287L78.878 59.729ZM78.984 70.806L76.7488 69.4556H76.7488L78.984 70.806ZM74.479 74.887L75.6469 77.2228L75.6635 77.2145L75.6799 77.206L74.479 74.887ZM67.43 73.7595C65.1522 73.7595 63.1734 73.3705 61.4529 72.6415L59.4151 77.4505C61.864 78.4882 64.5491 78.9825 67.43 78.9825V73.7595ZM61.4677 72.6478C59.811 71.9337 58.575 70.9451 57.6739 69.6994L53.4421 72.7606C54.9436 74.8363 56.9583 76.3916 59.4003 77.4442L61.4677 72.6478ZM57.6739 69.6994C56.8189 68.5175 56.342 67.0898 56.3142 65.3062L51.0918 65.3878C51.1346 68.1268 51.8944 70.6212 53.4421 72.7606L57.6739 69.6994ZM53.703 67.9585H61.653V62.7355H53.703V67.9585ZM59.0479 65.5288C59.1916 67.5895 59.9447 69.4561 61.4687 70.8672L65.0173 67.0348C64.6333 66.6792 64.3264 66.1431 64.2581 65.1652L59.0479 65.5288ZM61.5037 70.899C63.0933 72.3183 65.1178 72.8875 67.271 72.8875V67.6645C66.0322 67.6645 65.3714 67.3504 64.9823 67.003L61.5037 70.899ZM67.271 72.8875C69.3941 72.8875 71.4115 72.3877 73.0096 71.075L69.6944 67.039C69.3138 67.3517 68.6106 67.6645 67.271 67.6645V72.8875ZM73.0515 71.0398C74.6396 69.6786 75.4475 67.8494 75.4475 65.771H70.2245C70.2245 66.3779 70.0431 66.7394 69.6525 67.0742L73.0515 71.0398ZM75.4475 65.771C75.4475 64.096 74.913 62.5227 73.7223 61.2693L69.9357 64.8667C70.0876 65.0266 70.2245 65.2554 70.2245 65.771H75.4475ZM73.7223 61.2693C72.7491 60.2449 71.5565 59.4936 70.2112 58.9833L68.3588 63.8667C69.0628 64.1338 69.5662 64.4778 69.9357 64.8667L73.7223 61.2693ZM70.3137 59.0247C69.1708 58.5349 67.6671 58.0396 65.8551 57.5322L64.4469 62.5618C66.1683 63.0438 67.4205 63.4671 68.2563 63.8253L70.3137 59.0247ZM65.8879 57.5416C63.5452 56.8526 61.7014 56.2002 60.3235 55.5913L58.2125 60.3687C59.8732 61.1025 61.9514 61.828 64.4141 62.5524L65.8879 57.5416ZM60.3908 55.6222C59.2909 55.0984 58.3092 54.3173 57.4433 53.228L53.3547 56.478C54.6795 58.1447 56.2771 59.4482 58.1452 60.3378L60.3908 55.6222ZM57.4882 53.2861C56.8614 52.4504 56.4205 51.1821 56.4205 49.235H51.1975C51.1975 51.9519 51.8166 54.429 53.3098 56.4199L57.4882 53.2861ZM56.4205 49.235C56.4205 47.5008 56.8465 46.1147 57.6176 44.9704L53.2864 42.0516C51.8669 44.158 51.1975 46.5878 51.1975 49.235H56.4205ZM57.6176 44.9704C58.405 43.8021 59.5275 42.8717 61.0917 42.2013L59.0343 37.4007C56.6412 38.4263 54.6897 39.9692 53.2864 42.0516L57.6176 44.9704ZM61.1276 42.1856C62.718 41.4756 64.6067 41.0875 66.847 41.0875V35.8645C63.9993 35.8645 61.3653 36.3597 58.9984 37.4164L61.1276 42.1856ZM66.847 41.0875C70.2331 41.0875 72.7061 41.9126 74.5018 43.3331L77.7422 39.2369C74.8032 36.912 71.0929 35.8645 66.847 35.8645V41.0875ZM74.5357 43.3594C76.2823 44.6951 77.2945 46.5548 77.4927 49.2169L82.7013 48.8291C82.4048 44.8485 80.7671 41.5496 77.7083 39.2105L74.5357 43.3594ZM80.097 46.4115H71.935V51.6345H80.097V46.4115ZM74.5425 48.8781C74.4291 46.8385 73.5066 45.1124 71.9148 43.8499L68.6692 47.9421C69.1268 48.3049 69.2995 48.6635 69.3275 49.1679L74.5425 48.8781ZM71.9915 43.9132C70.4108 42.5583 68.4255 42.0125 66.317 42.0125V47.2355C67.5298 47.2355 68.1946 47.5377 68.5925 47.8788L71.9915 43.9132ZM66.317 42.0125C64.4155 42.0125 62.6036 42.5074 61.1393 43.7374L64.4987 47.7366C64.8011 47.4826 65.3212 47.2355 66.317 47.2355V42.0125ZM61.0993 43.7717C59.5458 45.131 58.9355 47.0101 58.9355 48.97H64.1585C64.1585 48.1032 64.3962 47.827 64.5387 47.7023L61.0993 43.7717ZM58.9355 48.97C58.9355 50.5763 59.4756 52.0647 60.6052 53.257L64.3968 49.665C64.2544 49.5147 64.1585 49.3424 64.1585 48.97H58.9355ZM60.705 53.3568C61.6176 54.2214 62.6877 54.9082 63.8784 55.4374L65.9996 50.6646C65.2823 50.3458 64.727 49.9726 64.297 49.5652L60.705 53.3568ZM63.9841 55.4816C65.0719 55.909 66.529 56.3923 68.3226 56.9303L69.8234 51.9277C68.0836 51.4057 66.7848 50.9704 65.8939 50.6204L63.9841 55.4816ZM68.3361 56.9344C70.6686 57.6204 72.4955 58.2847 73.8547 58.9169L76.0573 54.1811C74.3778 53.3999 72.2827 52.6509 69.8099 51.9236L68.3361 56.9344ZM73.8547 58.9169C74.9712 59.4362 75.956 60.2219 76.8138 61.3287L80.9422 58.1293C79.6093 56.4095 77.9795 55.0751 76.0573 54.1811L73.8547 58.9169ZM76.8138 61.3287C77.4644 62.1682 77.9095 63.4101 77.9095 65.294H83.1325C83.1325 62.5845 82.4823 60.1165 80.9422 58.1293L76.8138 61.3287ZM77.9095 65.294C77.9095 66.7959 77.5277 68.1664 76.7488 69.4556L81.2192 72.1564C82.4897 70.0536 83.1325 67.7494 83.1325 65.294H77.9095ZM76.7488 69.4556C76.003 70.6899 74.8839 71.7364 73.2781 72.568L75.6799 77.206C78.0314 75.9882 79.9156 74.3141 81.2192 72.1564L76.7488 69.4556ZM73.3111 72.5512C71.7689 73.3223 69.8368 73.7595 67.43 73.7595V78.9825C70.4646 78.9825 73.2318 78.4303 75.6469 77.2228L73.3111 72.5512ZM95.5929 52.733V50.1215H92.9814V52.733H95.5929ZM96.2819 69.11L94.4353 70.9566L94.5062 71.0275L94.5823 71.0928L96.2819 69.11ZM102.165 69.746H104.776V67.1345H102.165V69.746ZM102.165 76V78.6115H104.776V76H102.165ZM88.1199 52.733H90.7314V50.1215H88.1199V52.733ZM84.6219 52.733H82.0104V55.3445H84.6219V52.733ZM84.6219 46.638V44.0265H82.0104V46.638H84.6219ZM88.1199 46.638V49.2495H90.7314V46.638H88.1199ZM88.1199 39.377V36.7655H85.5084V39.377H88.1199ZM95.5929 39.377H98.2044V36.7655H95.5929V39.377ZM95.5929 46.638H92.9814V49.2495H95.5929V46.638ZM102.165 46.638H104.776V44.0265H102.165V46.638ZM102.165 52.733V55.3445H104.776V52.733H102.165ZM92.9814 52.733V66.937H98.2044V52.733H92.9814ZM92.9814 66.937C92.9814 68.2632 93.2818 69.8031 94.4353 70.9566L98.1285 67.2634C98.2411 67.376 98.2643 67.464 98.2545 67.4329C98.2408 67.3898 98.2044 67.2401 98.2044 66.937H92.9814ZM94.5823 71.0928C95.7919 72.1295 97.3825 72.3575 98.7199 72.3575V67.1345C98.3056 67.1345 98.0531 67.0944 97.9216 67.0601C97.7918 67.0262 97.8537 67.0178 97.9814 67.1272L94.5823 71.0928ZM98.7199 72.3575H102.165V67.1345H98.7199V72.3575ZM99.5534 69.746V76H104.776V69.746H99.5534ZM102.165 73.3885H97.5009V78.6115H102.165V73.3885ZM97.5009 73.3885C94.758 73.3885 93.1839 72.7215 92.2851 71.8481C91.4002 70.9882 90.7314 69.5008 90.7314 66.884H85.5084C85.5084 70.3445 86.4031 73.4151 88.6452 75.5939C90.8734 77.7591 93.9898 78.6115 97.5009 78.6115V73.3885ZM90.7314 66.884V52.733H85.5084V66.884H90.7314ZM88.1199 50.1215H84.6219V55.3445H88.1199V50.1215ZM87.2334 52.733V46.638H82.0104V52.733H87.2334ZM84.6219 49.2495H88.1199V44.0265H84.6219V49.2495ZM90.7314 46.638V39.377H85.5084V46.638H90.7314ZM88.1199 41.9885H95.5929V36.7655H88.1199V41.9885ZM92.9814 39.377V46.638H98.2044V39.377H92.9814ZM95.5929 49.2495H102.165V44.0265H95.5929V49.2495ZM99.5534 46.638V52.733H104.776V46.638H99.5534ZM102.165 50.1215H95.5929V55.3445H102.165V50.1215ZM107.343 53.316L105.029 52.1056L105.021 52.1196L105.014 52.1338L107.343 53.316ZM112.166 48.016L110.816 45.7801L110.808 45.7853L110.799 45.7906L112.166 48.016ZM124.727 47.486L123.48 49.7805L123.49 49.7861L123.5 49.7916L124.727 47.486ZM128.702 50.825L126.599 52.3741L131.313 58.7715V50.825H128.702ZM128.702 46.638V44.0265H126.09V46.638H128.702ZM136.175 46.638H138.786V44.0265H136.175V46.638ZM136.175 76V78.6115H138.786V76H136.175ZM128.702 76H126.09V78.6115H128.702V76ZM128.702 71.707H131.313V63.347L126.555 70.2205L128.702 71.707ZM124.727 75.152L125.953 77.4576L125.962 77.453L125.971 77.4483L124.727 75.152ZM112.166 74.569L110.771 76.777L110.78 76.7824L110.789 76.7878L112.166 74.569ZM107.343 69.216L105.007 70.3839L105.018 70.4053L105.029 70.4264L107.343 69.216ZM127.642 56.708L125.344 57.9498L125.352 57.9631L125.359 57.9762L127.642 56.708ZM124.78 53.74L123.456 55.9909L123.481 56.0056L123.506 56.0197L124.78 53.74ZM117.095 53.687L115.792 51.4238H115.792L117.095 53.687ZM114.233 56.655L111.962 55.366L111.956 55.3763L111.95 55.3868L114.233 56.655ZM114.233 65.877L111.922 67.0933L111.941 67.13L111.962 67.166L114.233 65.877ZM117.095 68.898L115.741 71.1313L115.756 71.1402L115.771 71.1489L117.095 68.898ZM124.78 68.951L126.054 71.2307L126.079 71.2166L126.104 71.2019L124.78 68.951ZM127.642 65.983L129.925 67.2512L129.932 67.2381L129.939 67.2248L127.642 65.983ZM108.205 61.213C108.205 58.5931 108.718 56.3764 109.671 54.4982L105.014 52.1338C103.636 54.8489 102.982 57.8969 102.982 61.213H108.205ZM109.657 54.5264C110.661 52.6058 111.958 51.208 113.532 50.2414L110.799 45.7906C108.345 47.2973 106.427 49.4329 105.029 52.1056L109.657 54.5264ZM113.515 50.2519C115.137 49.273 116.946 48.7725 119.003 48.7725V43.5495C116.042 43.5495 113.293 44.2856 110.816 45.7801L113.515 50.2519ZM119.003 48.7725C120.838 48.7725 122.302 49.1404 123.48 49.7805L125.974 45.1915C123.901 44.0649 121.549 43.5495 119.003 43.5495V48.7725ZM123.5 49.7916C124.86 50.5151 125.87 51.384 126.599 52.3741L130.804 49.2759C129.555 47.5806 127.914 46.2236 125.953 45.1804L123.5 49.7916ZM131.313 50.825V46.638H126.09V50.825H131.313ZM128.702 49.2495H136.175V44.0265H128.702V49.2495ZM133.563 46.638V76H138.786V46.638H133.563ZM136.175 73.3885H128.702V78.6115H136.175V73.3885ZM131.313 76V71.707H126.09V76H131.313ZM126.555 70.2205C125.867 71.2139 124.873 72.1028 123.483 72.8557L125.971 77.4483C127.972 76.3639 129.629 74.9561 130.849 73.1935L126.555 70.2205ZM123.5 72.8464C122.275 73.4981 120.783 73.8655 118.95 73.8655V79.0885C121.497 79.0885 123.857 78.5725 125.953 77.4576L123.5 72.8464ZM118.95 73.8655C116.95 73.8655 115.168 73.3587 113.543 72.3502L110.789 76.7878C113.262 78.3233 116.003 79.0885 118.95 79.0885V73.8655ZM113.56 72.361C111.969 71.3561 110.664 69.9315 109.657 68.0056L105.029 70.4264C106.424 73.0938 108.334 75.2379 110.771 76.777L113.56 72.361ZM109.679 68.0481C108.72 66.1302 108.205 63.8726 108.205 61.213H102.982C102.982 64.56 103.634 67.6378 105.007 70.3839L109.679 68.0481ZM131.313 61.319C131.313 59.1777 130.892 57.1818 129.925 55.4398L125.359 57.9762C125.804 58.7782 126.09 59.8563 126.09 61.319H131.313ZM129.939 55.4662C129.016 53.7591 127.722 52.3928 126.054 51.4603L123.506 56.0197C124.24 56.4298 124.854 57.0423 125.344 57.9498L129.939 55.4662ZM126.104 51.4891C124.506 50.5492 122.76 50.0685 120.911 50.0685V55.2915C121.818 55.2915 122.651 55.5175 123.456 55.9909L126.104 51.4891ZM120.911 50.0685C119.087 50.0685 117.364 50.5186 115.792 51.4238L118.398 55.9502C119.157 55.5127 119.979 55.2915 120.911 55.2915V50.0685ZM115.792 51.4238C114.176 52.3541 112.906 53.702 111.962 55.366L116.504 57.944C117.044 56.9933 117.682 56.3626 118.398 55.9502L115.792 51.4238ZM111.95 55.3868C110.986 57.1217 110.561 59.097 110.561 61.213H115.784C115.784 59.7957 116.066 58.7323 116.516 57.9232L111.95 55.3868ZM110.561 61.213C110.561 63.3336 110.988 65.3183 111.922 67.0933L116.544 64.6607C116.065 63.7504 115.784 62.6257 115.784 61.213H110.561ZM111.962 67.166C112.901 68.8206 114.156 70.1703 115.741 71.1313L118.448 66.6647C117.702 66.2123 117.049 65.548 116.504 64.588L111.962 67.166ZM115.771 71.1489C117.357 72.0823 119.084 72.5695 120.911 72.5695V67.3465C120.052 67.3465 119.235 67.1271 118.419 66.6471L115.771 71.1489ZM120.911 72.5695C122.734 72.5695 124.462 72.1199 126.054 71.2307L123.506 66.6713C122.694 67.1248 121.843 67.3465 120.911 67.3465V72.5695ZM126.104 71.2019C127.725 70.2485 129.002 68.9117 129.925 67.2512L125.359 64.7148C124.868 65.5983 124.237 66.2402 123.456 66.7001L126.104 71.2019ZM129.939 67.2248C130.891 65.463 131.313 63.4631 131.313 61.319H126.09C126.09 62.7789 125.805 63.8884 125.344 64.7412L129.939 67.2248ZM150.842 51.196H148.23V60.4449L153.067 52.5618L150.842 51.196ZM154.552 47.539L153.262 45.2684L153.25 45.2748L153.239 45.2814L154.552 47.539ZM159.852 46.214H162.463V43.6025H159.852V46.214ZM159.852 54.005V56.6165H162.463V54.005H159.852ZM152.591 55.648L150.831 53.7182L150.817 53.7313L150.803 53.7446L152.591 55.648ZM150.842 76V78.6115H153.453V76H150.842ZM143.422 76H140.81V78.6115H143.422V76ZM143.422 46.638V44.0265H140.81V46.638H143.422ZM150.842 46.638H153.453V44.0265H150.842V46.638ZM153.067 52.5618C153.804 51.3609 154.733 50.4544 155.864 49.7966L153.239 45.2814C151.332 46.3902 149.787 47.9217 148.616 49.8302L153.067 52.5618ZM155.842 49.8096C156.962 49.1729 158.276 48.8255 159.852 48.8255V43.6025C157.47 43.6025 155.25 44.1385 153.262 45.2684L155.842 49.8096ZM157.24 46.214V54.005H162.463V46.214H157.24ZM159.852 51.3935H157.891V56.6165H159.852V51.3935ZM157.891 51.3935C155.188 51.3935 152.687 52.0262 150.831 53.7182L154.35 57.5778C154.897 57.0791 155.929 56.6165 157.891 56.6165V51.3935ZM150.803 53.7446C148.843 55.5858 148.23 58.4083 148.23 61.372H153.453C153.453 58.8944 154.007 57.9008 154.379 57.5514L150.803 53.7446ZM148.23 61.372V76H153.453V61.372H148.23ZM150.842 73.3885H143.422V78.6115H150.842V73.3885ZM146.033 76V46.638H140.81V76H146.033ZM143.422 49.2495H150.842V44.0265H143.422V49.2495ZM148.23 46.638V51.196H153.453V46.638H148.23ZM173.488 52.733V50.1215H170.877V52.733H173.488ZM174.177 69.11L172.331 70.9566L172.402 71.0275L172.478 71.0928L174.177 69.11ZM180.06 69.746H182.672V67.1345H180.06V69.746ZM180.06 76V78.6115H182.672V76H180.06ZM166.015 52.733H168.627V50.1215H166.015V52.733ZM162.517 52.733H159.906V55.3445H162.517V52.733ZM162.517 46.638V44.0265H159.906V46.638H162.517ZM166.015 46.638V49.2495H168.627V46.638H166.015ZM166.015 39.377V36.7655H163.404V39.377H166.015ZM173.488 39.377H176.1V36.7655H173.488V39.377ZM173.488 46.638H170.877V49.2495H173.488V46.638ZM180.06 46.638H182.672V44.0265H180.06V46.638ZM180.06 52.733V55.3445H182.672V52.733H180.06ZM170.877 52.733V66.937H176.1V52.733H170.877ZM170.877 66.937C170.877 68.2632 171.177 69.8031 172.331 70.9566L176.024 67.2634C176.137 67.376 176.16 67.464 176.15 67.4329C176.136 67.3898 176.1 67.2401 176.1 66.937H170.877ZM172.478 71.0928C173.687 72.1295 175.278 72.3575 176.615 72.3575V67.1345C176.201 67.1345 175.949 67.0944 175.817 67.0601C175.687 67.0262 175.749 67.0178 175.877 67.1272L172.478 71.0928ZM176.615 72.3575H180.06V67.1345H176.615V72.3575ZM177.449 69.746V76H182.672V69.746H177.449ZM180.06 73.3885H175.396V78.6115H180.06V73.3885ZM175.396 73.3885C172.653 73.3885 171.079 72.7215 170.181 71.8481C169.296 70.9882 168.627 69.5008 168.627 66.884H163.404C163.404 70.3445 164.299 73.4151 166.541 75.5939C168.769 77.7591 171.885 78.6115 175.396 78.6115V73.3885ZM168.627 66.884V52.733H163.404V66.884H168.627ZM166.015 50.1215H162.517V55.3445H166.015V50.1215ZM165.129 52.733V46.638H159.906V52.733H165.129ZM162.517 49.2495H166.015V44.0265H162.517V49.2495ZM168.627 46.638V39.377H163.404V46.638H168.627ZM166.015 41.9885H173.488V36.7655H166.015V41.9885ZM170.877 39.377V46.638H176.1V39.377H170.877ZM173.488 49.2495H180.06V44.0265H173.488V49.2495ZM177.449 46.638V52.733H182.672V46.638H177.449ZM180.06 50.1215H173.488V55.3445H180.06V50.1215ZM229.667 76V78.6115H232.279V76H229.667ZM222.247 76L220.069 77.4412L220.844 78.6115H222.247V76ZM205.446 50.613L207.624 49.1718L202.835 41.935V50.613H205.446ZM205.446 76V78.6115H208.058V76H205.446ZM198.026 76H195.415V78.6115H198.026V76ZM198.026 38.953V36.3415H195.415V38.953H198.026ZM205.446 38.953L207.625 37.5139L206.851 36.3415H205.446V38.953ZM222.247 64.393L220.068 65.8321L224.859 73.0861V64.393H222.247ZM222.247 38.953V36.3415H219.636V38.953H222.247ZM229.667 38.953H232.279V36.3415H229.667V38.953ZM229.667 73.3885H222.247V78.6115H229.667V73.3885ZM224.425 74.5588L207.624 49.1718L203.268 52.0542L220.069 77.4412L224.425 74.5588ZM202.835 50.613V76H208.058V50.613H202.835ZM205.446 73.3885H198.026V78.6115H205.446V73.3885ZM200.638 76V38.953H195.415V76H200.638ZM198.026 41.5645H205.446V36.3415H198.026V41.5645ZM203.267 40.3921L220.068 65.8321L224.426 62.9539L207.625 37.5139L203.267 40.3921ZM224.859 64.393V38.953H219.636V64.393H224.859ZM222.247 41.5645H229.667V36.3415H222.247V41.5645ZM227.056 38.953V76H232.279V38.953H227.056ZM242.406 74.622L241.125 76.8981L241.139 76.9058L241.153 76.9132L242.406 74.622ZM237.053 69.269L234.768 70.5343L234.776 70.5476L234.783 70.5609L237.053 69.269ZM237.106 53.369L234.851 52.051L234.844 52.064L234.836 52.0771L237.106 53.369ZM242.565 48.069L243.803 50.3683L243.816 50.361L243.83 50.3535L242.565 48.069ZM257.935 48.069L256.67 50.3535L256.683 50.361L256.697 50.3683L257.935 48.069ZM263.341 53.369L261.071 54.6609L261.079 54.674L261.086 54.687L263.341 53.369ZM263.288 69.269L261.048 67.9254L261.041 67.9382L261.033 67.951L263.288 69.269ZM257.776 74.622L259.014 76.9214L259.026 76.9146L257.776 74.622ZM253.801 69.057L255.051 71.3496L255.063 71.3432L255.075 71.3367L253.801 69.057ZM256.663 66.089L258.96 67.3308L256.663 66.089ZM255.497 54.906L253.607 56.7081L253.628 56.7306L253.65 56.7526L255.497 54.906ZM244.791 54.906L242.901 53.1039L242.9 53.105L244.791 54.906ZM244.738 67.785L242.803 69.5394L242.825 69.563L242.847 69.586L244.738 67.785ZM250.038 73.8655C247.606 73.8655 245.5 73.3375 243.659 72.3308L241.153 76.9132C243.835 78.3799 246.817 79.0885 250.038 79.0885V73.8655ZM243.686 72.3459C241.846 71.3107 240.4 69.8701 239.322 67.9771L234.783 70.5609C236.32 73.2612 238.443 75.3893 241.125 76.8981L243.686 72.3459ZM239.337 68.0037C238.309 66.147 237.756 63.9442 237.756 61.319H232.533C232.533 64.7005 233.253 67.7976 234.768 70.5343L239.337 68.0037ZM237.756 61.319C237.756 58.7058 238.321 56.5126 239.375 54.6609L234.836 52.0771C233.276 54.8187 232.533 57.9255 232.533 61.319H237.756ZM239.36 54.687C240.466 52.7959 241.938 51.3728 243.803 50.3683L241.327 45.7697C238.599 47.2386 236.431 49.3487 234.851 52.051L239.36 54.687ZM243.83 50.3535C245.71 49.3123 247.831 48.7725 250.25 48.7725V43.5495C247.015 43.5495 244.013 44.2817 241.3 45.7845L243.83 50.3535ZM250.25 48.7725C252.669 48.7725 254.79 49.3123 256.67 50.3535L259.2 45.7845C256.487 44.2817 253.484 43.5495 250.25 43.5495V48.7725ZM256.697 50.3683C258.556 51.3694 260.003 52.7843 261.071 54.6609L265.61 52.0771C264.064 49.3604 261.907 47.2419 259.173 45.7697L256.697 50.3683ZM261.086 54.687C262.166 56.5342 262.743 58.7179 262.743 61.319H267.966C267.966 57.9134 267.201 54.7971 265.595 52.051L261.086 54.687ZM262.743 61.319C262.743 63.9079 262.154 66.0823 261.048 67.9254L265.527 70.6126C267.177 67.8624 267.966 64.7368 267.966 61.319H262.743ZM261.033 67.951C259.93 69.8382 258.44 71.2853 256.525 72.3294L259.026 76.9146C261.776 75.4147 263.96 73.2932 265.542 70.587L261.033 67.951ZM256.538 72.3227C254.658 73.335 252.511 73.8655 250.038 73.8655V79.0885C253.289 79.0885 256.301 78.3823 259.014 76.9213L256.538 72.3227ZM250.038 72.6225C251.812 72.6225 253.497 72.1972 255.051 71.3496L252.55 66.7644C251.772 67.1888 250.948 67.3995 250.038 67.3995V72.6225ZM255.075 71.3367C256.743 70.4042 258.037 69.0379 258.96 67.3308L254.365 64.8472C253.875 65.7547 253.261 66.3672 252.527 66.7773L255.075 71.3367ZM258.96 67.3308C259.92 65.5554 260.334 63.5147 260.334 61.319H255.111C255.111 62.8686 254.819 64.008 254.365 64.8472L258.96 67.3308ZM260.334 61.319C260.334 58.0714 259.462 55.1782 257.343 53.0594L253.65 56.7526C254.499 57.6018 255.111 58.9839 255.111 61.319H260.334ZM257.387 53.1039C255.44 51.0619 252.97 50.0155 250.144 50.0155V55.2385C251.558 55.2385 252.656 55.7114 253.607 56.7081L257.387 53.1039ZM250.144 50.0155C247.318 50.0155 244.848 51.0619 242.901 53.1039L246.681 56.7081C247.631 55.7114 248.73 55.2385 250.144 55.2385V50.0155ZM242.9 53.105C240.878 55.228 240.059 58.1042 240.059 61.319H245.282C245.282 58.9512 245.877 57.552 246.682 56.707L242.9 53.105ZM240.059 61.319C240.059 64.5224 240.853 67.3893 242.803 69.5394L246.672 66.0306C245.866 65.142 245.282 63.6983 245.282 61.319H240.059ZM242.847 69.586C244.772 71.6073 247.231 72.6225 250.038 72.6225V67.3995C248.605 67.3995 247.53 66.9307 246.629 65.984L242.847 69.586ZM311.502 46.638L314.008 47.371L314.986 44.0265H311.502V46.638ZM302.916 76V78.6115H304.873L305.422 76.733L302.916 76ZM294.913 76L292.386 76.6595L292.895 78.6115H294.913V76ZM289.56 55.489L292.086 54.8295L289.56 45.1475L287.033 54.8295L289.56 55.489ZM284.207 76V78.6115H286.224L286.733 76.6595L284.207 76ZM276.151 76L273.645 76.7371L274.197 78.6115H276.151V76ZM267.512 46.638V44.0265H264.021L265.006 47.3751L267.512 46.638ZM275.038 46.638L277.581 46.0473L277.112 44.0265H275.038V46.638ZM280.232 69.004L277.688 69.5947L282.764 69.6402L280.232 69.004ZM285.85 46.638V44.0265H283.813L283.317 46.0018L285.85 46.638ZM293.694 46.638L296.229 46.0117L295.738 44.0265H293.694V46.638ZM299.206 68.951L296.67 69.5773L301.749 69.5431L299.206 68.951ZM304.4 46.638V44.0265H302.326L301.856 46.0459L304.4 46.638ZM308.995 45.905L300.409 75.267L305.422 76.733L314.008 47.371L308.995 45.905ZM302.916 73.3885H294.913V78.6115H302.916V73.3885ZM297.439 75.3405L292.086 54.8295L287.033 56.1485L292.386 76.6595L297.439 75.3405ZM287.033 54.8295L281.68 75.3405L286.733 76.6595L292.086 56.1485L287.033 54.8295ZM284.207 73.3885H276.151V78.6115H284.207V73.3885ZM278.656 75.2629L270.017 45.9009L265.006 47.3751L273.645 76.7371L278.656 75.2629ZM267.512 49.2495H275.038V44.0265H267.512V49.2495ZM272.494 47.2287L277.688 69.5947L282.775 68.4133L277.581 46.0473L272.494 47.2287ZM282.764 69.6402L288.382 47.2742L283.317 46.0018L277.699 68.3678L282.764 69.6402ZM285.85 49.2495H293.694V44.0265H285.85V49.2495ZM291.158 47.2643L296.67 69.5773L301.741 68.3247L296.229 46.0117L291.158 47.2643ZM301.749 69.5431L306.943 47.2301L301.856 46.0459L296.662 68.3589L301.749 69.5431ZM304.4 49.2495H311.502V44.0265H304.4V49.2495ZM329.205 45.26V42.6485H323L327.338 47.0856L329.205 45.26ZM338.586 45.26L340.458 43.4386L339.689 42.6485H338.586V45.26ZM350.14 57.132L352.012 58.9534L353.784 57.132L352.012 55.3106L350.14 57.132ZM338.586 69.004V71.6155H339.689L340.458 70.8254L338.586 69.004ZM329.205 69.004L327.338 67.1784L323 71.6155H329.205V69.004ZM340.812 57.132L342.68 58.9576L344.464 57.132L342.68 55.3064L340.812 57.132ZM329.205 47.8715H338.586V42.6485H329.205V47.8715ZM336.715 47.0814L348.269 58.9534L352.012 55.3106L340.458 43.4386L336.715 47.0814ZM348.269 55.3106L336.715 67.1826L340.458 70.8254L352.012 58.9534L348.269 55.3106ZM338.586 66.3925H329.205V71.6155H338.586V66.3925ZM331.073 70.8296L342.68 58.9576L338.945 55.3064L327.338 67.1784L331.073 70.8296ZM342.68 55.3064L331.073 43.4344L327.338 47.0856L338.945 58.9576L342.68 55.3064ZM359.277 45.26V42.6485H353.071L357.409 47.0856L359.277 45.26ZM368.658 45.26L370.529 43.4386L369.76 42.6485H368.658V45.26ZM380.212 57.132L382.083 58.9534L383.856 57.132L382.083 55.3106L380.212 57.132ZM368.658 69.004V71.6155H369.76L370.529 70.8254L368.658 69.004ZM359.277 69.004L357.409 67.1784L353.071 71.6155H359.277V69.004ZM370.884 57.132L372.751 58.9576L374.536 57.132L372.751 55.3064L370.884 57.132ZM359.277 47.8715H368.658V42.6485H359.277V47.8715ZM366.786 47.0814L378.34 58.9534L382.083 55.3106L370.529 43.4386L366.786 47.0814ZM378.34 55.3106L366.786 67.1826L370.529 70.8254L382.083 58.9534L378.34 55.3106ZM368.658 66.3925H359.277V71.6155H368.658V66.3925ZM361.144 70.8296L372.751 58.9576L369.016 55.3064L357.409 67.1784L361.144 70.8296ZM372.751 55.3064L361.144 43.4344L357.409 47.0856L369.016 58.9576L372.751 55.3064ZM389.348 45.26V42.6485H383.142L387.481 47.0856L389.348 45.26ZM398.729 45.26L400.6 43.4386L399.831 42.6485H398.729V45.26ZM410.283 57.132L412.154 58.9534L413.927 57.132L412.154 55.3106L410.283 57.132ZM398.729 69.004V71.6155H399.831L400.6 70.8254L398.729 69.004ZM389.348 69.004L387.481 67.1784L383.142 71.6155H389.348V69.004ZM400.955 57.132L402.822 58.9576L404.607 57.132L402.822 55.3064L400.955 57.132ZM389.348 47.8715H398.729V42.6485H389.348V47.8715ZM396.857 47.0814L408.411 58.9534L412.154 55.3106L400.6 43.4386L396.857 47.0814ZM408.411 55.3106L396.857 67.1826L400.6 70.8254L412.154 58.9534L408.411 55.3106ZM398.729 66.3925H389.348V71.6155H398.729V66.3925ZM391.215 70.8296L402.822 58.9576L399.088 55.3064L387.481 67.1784L391.215 70.8296ZM402.822 55.3064L391.215 43.4344L387.481 47.0856L399.088 58.9576L402.822 55.3064Z" fill="white" mask="url(#path-2-outside-1_10306_16)"/>
</svg>
